<svg width="261" height="241" viewBox="0 0 261 241" fill="none" xmlns="http://www.w3.org/2000/svg">
<path d="M83.4 231C31.1 227.2 -2.49997 172.1 21 124.6C43.4 79.1004 107.1 69.2005 141.3 107.3C141.7 109.4 140.9 108.4 139.9 108.9C129.5 113.5 120.4 117.4 111.8 125.5C78.4 102.1 34.6 135.2 50.9 173.5C58.9 192.3 81 200 100.2 195.5C104.5 205.9 112.6 214.9 121.3 221.7C121.7 223.7 121 222.9 120 223.4C117.1 224.8 112.2 226.5 109 227.4C104.1 228.8 96.2 230.8 91.3 231.1C86.4 231.4 85.7 231.3 83.3 231.1L83.4 231Z" fill="white"/>
<path d="M181.3 231C177.5 231.4 170.1 231.4 166.3 231C162.5 230.6 157.5 229.1 154.5 228.3C115.4 217.8 92.4 177.7 102.4 138.5C112.1 145.7 122.4 152.2 134.2 155.5C132.3 193.2 180.6 212.1 204.7 182.2C217.7 166.2 215.8 144.2 202.3 129.2C208.1 118.8 212.3 107.6 213.6 95.7002C267.1 129.8 254.7 211.6 192.9 228.2C189.9 229 183.9 230.6 181.1 230.9L181.3 231Z" fill="white"/>
<path d="M147.4 157.4C149 145.5 150.5 133.6 147.4 121.8C173.1 110.4 178.4 75.2997 157.3 56.4997C136.2 37.6997 101.6 46.4997 93.3 73.7997C81.1 73.6997 68.8 75.1997 57.5 79.8997C61.4 20.6997 132.5 -8.70034 178.3 29.6997C224.8 68.6997 206.2 144.5 147.3 157.5L147.4 157.4Z" fill="white"/>
</svg>
